<svg width="240" height="47" viewBox="0 0 240 47" fill="none" xmlns="http://www.w3.org/2000/svg">
<path d="M63.2966 5.82997H68.6874L74.163 29.3594H74.2479L80.3603 5.82997H85.7935L91.7361 29.3594H91.821L97.4664 5.82997H102.857L94.4951 36.5993H89.1043L83.0344 13.0698H82.9495L76.7523 36.5993H71.2766L63.2966 5.82997Z" fill="black"/>
<path d="M122.493 31.8601C122.493 32.4698 122.564 32.9053 122.706 33.1667C122.876 33.428 123.188 33.5586 123.643 33.5586C123.785 33.5586 123.955 33.5586 124.154 33.5586C124.353 33.5586 124.58 33.5296 124.835 33.4715V36.9122C124.665 36.9703 124.438 37.0283 124.154 37.0864C123.898 37.1735 123.628 37.2461 123.344 37.3042C123.061 37.3622 122.777 37.4058 122.493 37.4348C122.209 37.4639 121.967 37.4784 121.769 37.4784C120.775 37.4784 119.951 37.2751 119.298 36.8687C118.645 36.4622 118.219 35.7508 118.02 34.7346C117.055 35.6927 115.862 36.3896 114.442 36.8251C113.051 37.2606 111.702 37.4784 110.396 37.4784C109.402 37.4784 108.451 37.3332 107.542 37.0429C106.634 36.7815 105.825 36.3896 105.115 35.8669C104.433 35.3153 103.879 34.6329 103.453 33.82C103.056 32.9779 102.857 32.0052 102.857 30.9019C102.857 29.5082 103.099 28.3758 103.581 27.5048C104.092 26.6337 104.746 25.9514 105.541 25.4578C106.364 24.9642 107.273 24.6158 108.266 24.4125C109.289 24.1803 110.311 24.006 111.333 23.8899C112.213 23.7157 113.051 23.5995 113.846 23.5415C114.641 23.4544 115.337 23.3237 115.933 23.1495C116.558 22.9753 117.041 22.714 117.381 22.3655C117.751 21.9881 117.935 21.4364 117.935 20.7105C117.935 20.0718 117.779 19.5491 117.467 19.1426C117.183 18.7361 116.813 18.4313 116.359 18.228C115.933 17.9957 115.451 17.8506 114.911 17.7925C114.371 17.7054 113.86 17.6618 113.378 17.6618C112.015 17.6618 110.893 17.9522 110.013 18.5329C109.133 19.1136 108.636 20.0137 108.522 21.2332H103.666C103.752 19.7814 104.092 18.5764 104.689 17.6183C105.285 16.6601 106.038 15.8907 106.946 15.31C107.883 14.7293 108.934 14.3228 110.098 14.0905C111.262 13.8582 112.455 13.7421 113.676 13.7421C114.755 13.7421 115.82 13.8582 116.87 14.0905C117.921 14.3228 118.858 14.7002 119.681 15.2229C120.533 15.7455 121.215 16.4278 121.726 17.2699C122.237 18.0828 122.493 19.0846 122.493 20.275V31.8601ZM117.637 25.5885C116.899 26.0821 115.99 26.3869 114.911 26.5031C113.832 26.5902 112.753 26.7354 111.674 26.9386C111.163 27.0257 110.666 27.1564 110.183 27.3306C109.7 27.4757 109.274 27.6935 108.905 27.9839C108.536 28.2452 108.238 28.6081 108.011 29.0727C107.812 29.5082 107.713 30.0454 107.713 30.6841C107.713 31.2358 107.869 31.7004 108.181 32.0778C108.494 32.4553 108.863 32.7602 109.289 32.9924C109.743 33.1957 110.226 33.3409 110.737 33.428C111.276 33.5151 111.759 33.5586 112.185 33.5586C112.725 33.5586 113.307 33.486 113.931 33.3409C114.556 33.1957 115.138 32.9489 115.678 32.6005C116.246 32.252 116.714 31.8165 117.083 31.2939C117.452 30.7422 117.637 30.0744 117.637 29.2905V25.5885Z" fill="black"/>
<path d="M124.835 14.6212H130.416L136.443 31.0713H136.532L142.38 14.6212H147.693L138.719 37.8473C138.303 38.8417 137.886 39.7935 137.469 40.7026C137.082 41.6118 136.591 42.4073 135.996 43.0892C135.431 43.7995 134.716 44.3535 133.853 44.7512C132.99 45.1774 131.889 45.3905 130.55 45.3905C129.359 45.3905 128.184 45.3053 127.023 45.1348V41.0436C127.44 41.1004 127.841 41.1572 128.228 41.214C128.615 41.2993 129.017 41.3419 129.434 41.3419C130.029 41.3419 130.52 41.2709 130.907 41.1288C131.294 40.9868 131.606 40.7737 131.844 40.4896C132.112 40.2339 132.335 39.9213 132.514 39.552C132.693 39.1826 132.856 38.7565 133.005 38.2735L133.585 36.5688L124.835 14.6212Z" fill="black"/>
<path d="M148.572 14.3195H152.211V12.4665C152.211 11.0587 152.382 9.92392 152.725 9.06204C153.067 8.17143 153.524 7.49628 154.095 7.03661C154.666 6.54821 155.308 6.23219 156.021 6.08854C156.764 5.91616 157.534 5.82997 158.333 5.82997C159.903 5.82997 161.045 5.93052 161.759 6.13163V9.96702C161.445 9.88083 161.102 9.82337 160.731 9.79464C160.389 9.73718 159.975 9.70846 159.489 9.70846C158.833 9.70846 158.262 9.86647 157.777 10.1825C157.32 10.4985 157.092 11.1162 157.092 12.0355V14.3195H161.245V17.9825H157.092V36.5993H152.211V17.9825H148.572V14.3195Z" fill="black"/>
<path d="M183.152 31.8601C183.152 32.4698 183.223 32.9053 183.365 33.1667C183.536 33.428 183.848 33.5586 184.302 33.5586C184.444 33.5586 184.614 33.5586 184.813 33.5586C185.012 33.5586 185.239 33.5296 185.495 33.4715V36.9122C185.325 36.9703 185.097 37.0283 184.813 37.0864C184.557 37.1735 184.288 37.2461 184.004 37.3042C183.72 37.3622 183.436 37.4058 183.152 37.4348C182.868 37.4639 182.627 37.4784 182.428 37.4784C181.434 37.4784 180.611 37.2751 179.957 36.8687C179.304 36.4622 178.878 35.7508 178.68 34.7346C177.714 35.6927 176.522 36.3896 175.102 36.8251C173.711 37.2606 172.362 37.4784 171.056 37.4784C170.062 37.4784 169.111 37.3332 168.202 37.0429C167.293 36.7815 166.484 36.3896 165.774 35.8669C165.093 35.3153 164.539 34.6329 164.113 33.82C163.716 32.9779 163.517 32.0052 163.517 30.9019C163.517 29.5082 163.758 28.3758 164.241 27.5048C164.752 26.6337 165.405 25.9514 166.2 25.4578C167.024 24.9642 167.932 24.6158 168.926 24.4125C169.948 24.1803 170.97 24.006 171.993 23.8899C172.873 23.7157 173.711 23.5995 174.506 23.5415C175.301 23.4544 175.996 23.3237 176.593 23.1495C177.217 22.9753 177.701 22.714 178.041 22.3655C178.41 21.9881 178.595 21.4364 178.595 20.7105C178.595 20.0718 178.439 19.5491 178.126 19.1426C177.842 18.7361 177.473 18.4313 177.019 18.228C176.593 17.9957 176.11 17.8506 175.57 17.7925C175.031 17.7054 174.52 17.6618 174.037 17.6618C172.674 17.6618 171.553 17.9522 170.672 18.5329C169.792 19.1136 169.295 20.0137 169.182 21.2332H164.326C164.411 19.7814 164.752 18.5764 165.348 17.6183C165.945 16.6601 166.697 15.8907 167.606 15.31C168.543 14.7293 169.593 14.3228 170.758 14.0905C171.922 13.8582 173.114 13.7421 174.335 13.7421C175.414 13.7421 176.479 13.8582 177.53 14.0905C178.58 14.3228 179.518 14.7002 180.341 15.2229C181.193 15.7455 181.875 16.4278 182.386 17.2699C182.897 18.0828 183.152 19.0846 183.152 20.275V31.8601ZM178.297 25.5885C177.559 26.0821 176.649 26.3869 175.57 26.5031C174.491 26.5902 173.412 26.7354 172.333 26.9386C171.822 27.0257 171.325 27.1564 170.843 27.3306C170.36 27.4757 169.934 27.6935 169.565 27.9839C169.196 28.2452 168.898 28.6081 168.671 29.0727C168.472 29.5082 168.372 30.0454 168.372 30.6841C168.372 31.2358 168.529 31.7004 168.841 32.0778C169.153 32.4553 169.522 32.7602 169.948 32.9924C170.403 33.1957 170.885 33.3409 171.396 33.428C171.936 33.5151 172.419 33.5586 172.845 33.5586C173.384 33.5586 173.967 33.486 174.591 33.3409C175.216 33.1957 175.798 32.9489 176.337 32.6005C176.905 32.252 177.374 31.8165 177.743 31.2939C178.112 30.7422 178.297 30.0744 178.297 29.2905V25.5885Z" fill="black"/>
<path d="M188.133 14.3447H192.789V18.6493H192.876C193.021 18.0466 193.297 17.4583 193.703 16.8844C194.138 16.3105 194.646 15.7939 195.226 15.3348C195.836 14.8469 196.503 14.4595 197.228 14.1725C197.954 13.8856 198.694 13.7421 199.448 13.7421C200.028 13.7421 200.42 13.7564 200.623 13.7851C200.855 13.8138 201.087 13.8425 201.319 13.8712V18.6062C200.971 18.5488 200.609 18.5058 200.231 18.4771C199.883 18.4197 199.535 18.391 199.187 18.391C198.345 18.391 197.548 18.5632 196.793 18.9075C196.068 19.2232 195.43 19.7111 194.878 20.3711C194.327 21.0024 193.892 21.7916 193.573 22.7386C193.254 23.6856 193.094 24.7761 193.094 26.0101V36.5993H188.133V14.3447Z" fill="black"/>
<path d="M218.149 23.6286C218.09 22.8446 217.913 22.0897 217.618 21.3638C217.352 20.638 216.968 20.0137 216.466 19.4911C215.994 18.9394 215.403 18.5039 214.695 18.1845C214.016 17.836 213.248 17.6618 212.392 17.6618C211.506 17.6618 210.694 17.8215 209.956 18.1409C209.247 18.4313 208.627 18.8523 208.096 19.404C207.594 19.9266 207.18 20.5508 206.855 21.2767C206.56 22.0026 206.398 22.7866 206.368 23.6286H218.149ZM206.368 26.895C206.368 27.7661 206.486 28.6081 206.723 29.4211C206.988 30.2341 207.372 30.9455 207.874 31.5552C208.376 32.1649 209.011 32.6585 209.779 33.036C210.546 33.3844 211.462 33.5586 212.525 33.5586C214.001 33.5586 215.182 33.2538 216.068 32.644C216.983 32.0052 217.662 31.0616 218.105 29.8131H222.888C222.623 31.0326 222.165 32.1214 221.515 33.0796C220.866 34.0377 220.083 34.8507 219.168 35.5185C218.253 36.1573 217.219 36.6364 216.068 36.9558C214.946 37.3042 213.765 37.4784 212.525 37.4784C210.723 37.4784 209.129 37.188 207.741 36.6073C206.353 36.0266 205.172 35.2136 204.198 34.1684C203.253 33.1231 202.53 31.8746 202.028 30.4228C201.555 28.9711 201.319 27.3741 201.319 25.632C201.319 24.0351 201.57 22.5252 202.072 21.1025C202.604 19.6508 203.342 18.3877 204.287 17.3134C205.261 16.2101 206.427 15.339 207.785 14.7002C209.144 14.0615 210.679 13.7421 212.392 13.7421C214.193 13.7421 215.802 14.1195 217.219 14.8745C218.666 15.6003 219.862 16.573 220.807 17.7925C221.752 19.012 222.431 20.4202 222.844 22.0171C223.287 23.585 223.405 25.211 223.199 26.895H206.368Z" fill="black"/>
<path d="M226.813 14.3447H231.47V18.6493H231.557C231.702 18.0466 231.978 17.4583 232.384 16.8844C232.819 16.3105 233.326 15.7939 233.907 15.3348C234.516 14.8469 235.184 14.4595 235.909 14.1725C236.635 13.8856 237.374 13.7421 238.129 13.7421C238.709 13.7421 239.101 13.7564 239.304 13.7851C239.536 13.8138 239.768 13.8425 240 13.8712V18.6062C239.652 18.5488 239.289 18.5058 238.912 18.4771C238.564 18.4197 238.216 18.391 237.868 18.391C237.026 18.391 236.228 18.5632 235.474 18.9075C234.749 19.2232 234.11 19.7111 233.559 20.3711C233.008 21.0024 232.572 21.7916 232.253 22.7386C231.934 23.6856 231.775 24.7761 231.775 26.0101V36.5993H226.813V14.3447Z" fill="black"/>
<path fill-rule="evenodd" clip-rule="evenodd" d="M23.3199 0C36.1991 0 46.6398 10.4407 46.6398 23.3199C46.6398 36.1986 36.1998 46.6391 23.3212 46.6398C23.3207 46.6398 23.3204 46.6398 23.3199 46.6398C10.4407 46.6398 0 36.1991 0 23.3199C0 10.4407 10.4407 0 23.3199 0ZM13.6157 39.2563C11.6744 35.6195 10.3897 30.8907 10.0932 25.6519H14.7655C15.0716 30.4422 16.3023 34.5694 17.9728 37.4999C19.0016 39.305 20.0446 40.4343 20.9879 41.107V25.6519H25.6519V41.107C26.5952 40.4343 27.6381 39.305 28.667 37.4999C30.3374 34.5694 31.5681 30.4422 31.8743 25.6519H36.5466C36.2502 30.8907 34.9654 35.6195 33.0241 39.2563C38.3922 35.9806 41.9758 30.0687 41.9758 23.3199C41.9758 16.5711 38.3922 10.6592 33.0241 7.38341C34.9654 11.0203 36.2502 15.7491 36.5466 20.9879H31.8743C31.5681 16.1975 30.3374 12.0704 28.667 9.13986C27.6381 7.33476 26.5952 6.20543 25.6519 5.53274V20.9879H20.9879V5.53274C20.0446 6.20543 19.0016 7.33476 17.9728 9.13986C16.3023 12.0704 15.0716 16.1975 14.7655 20.9879H10.0932C10.3897 15.7491 11.6744 11.0203 13.6157 7.38339C8.24756 10.6592 4.66398 16.571 4.66398 23.3199C4.66398 30.0688 8.24756 35.9806 13.6157 39.2563Z" fill="black"/>
</svg>
