<?xml version="1.0" encoding="UTF-8" standalone="no"?>
<!DOCTYPE svg PUBLIC "-//W3C//DTD SVG 1.1//EN" "http://www.w3.org/Graphics/SVG/1.1/DTD/svg11.dtd">
<svg width="100%" height="100%" viewBox="0 0 3748 1654" version="1.1" xmlns="http://www.w3.org/2000/svg" xmlns:xlink="http://www.w3.org/1999/xlink" xml:space="preserve" xmlns:serif="http://www.serif.com/" style="fill-rule:evenodd;clip-rule:evenodd;stroke-linejoin:round;stroke-miterlimit:2;">
    <g id="Logo" transform="matrix(1.510822,0,0,0.471475,0,0)">
        <rect x="0" y="0" width="2480.315" height="3507.874" style="fill:none;"/>
        <g id="Logotype" transform="matrix(1.147572,0,0,1,-235.633283,-3.497161)">
            <g transform="matrix(0.576775,0,0,2.121004,-61.714945,1622.568343)">
                <g transform="matrix(375,0,0,375,1987.969222,360.648823)">
                    <path d="M0.454,-0.476C0.448,-0.513 0.437,-0.545 0.422,-0.57C0.407,-0.595 0.387,-0.613 0.363,-0.626C0.34,-0.639 0.312,-0.645 0.281,-0.644C0.252,-0.644 0.227,-0.636 0.206,-0.62C0.184,-0.604 0.173,-0.583 0.173,-0.558C0.173,-0.537 0.179,-0.519 0.191,-0.504C0.202,-0.489 0.22,-0.474 0.244,-0.461C0.268,-0.448 0.298,-0.433 0.335,-0.418C0.36,-0.408 0.386,-0.396 0.413,-0.383C0.44,-0.37 0.464,-0.354 0.487,-0.336C0.51,-0.317 0.528,-0.296 0.542,-0.272C0.556,-0.247 0.563,-0.219 0.563,-0.186C0.563,-0.147 0.552,-0.112 0.531,-0.081C0.51,-0.05 0.48,-0.026 0.442,-0.009C0.403,0.007 0.358,0.016 0.307,0.016C0.28,0.016 0.252,0.012 0.221,0.004C0.19,-0.005 0.16,-0.017 0.133,-0.033L0.136,0.009L0.059,0.009L0.059,-0.225L0.125,-0.225C0.134,-0.169 0.156,-0.127 0.19,-0.099C0.223,-0.07 0.263,-0.056 0.31,-0.056C0.334,-0.056 0.355,-0.06 0.373,-0.069C0.391,-0.078 0.405,-0.089 0.415,-0.104C0.425,-0.118 0.43,-0.133 0.43,-0.15C0.43,-0.173 0.422,-0.193 0.406,-0.208C0.389,-0.223 0.369,-0.236 0.345,-0.247C0.32,-0.258 0.295,-0.268 0.27,-0.278C0.238,-0.291 0.208,-0.305 0.18,-0.321C0.153,-0.335 0.129,-0.353 0.108,-0.372C0.087,-0.391 0.071,-0.413 0.06,-0.439C0.049,-0.464 0.043,-0.492 0.043,-0.525C0.043,-0.546 0.047,-0.567 0.055,-0.59C0.063,-0.612 0.076,-0.632 0.094,-0.651C0.112,-0.67 0.136,-0.686 0.166,-0.698C0.196,-0.71 0.233,-0.716 0.277,-0.716C0.304,-0.716 0.333,-0.712 0.364,-0.704C0.396,-0.696 0.423,-0.684 0.446,-0.668L0.442,-0.709L0.52,-0.709L0.52,-0.476L0.454,-0.476Z" style="fill:rgb(9,16,22);fill-rule:nonzero;"/>
                </g>
                <g transform="matrix(375,0,0,375,2212.219222,360.648823)">
                    <path d="M0.286,0.016C0.238,0.016 0.195,0.006 0.156,-0.015C0.117,-0.036 0.087,-0.065 0.065,-0.104C0.042,-0.142 0.031,-0.187 0.031,-0.239C0.031,-0.294 0.043,-0.343 0.066,-0.385C0.089,-0.426 0.119,-0.458 0.158,-0.481C0.196,-0.505 0.238,-0.516 0.283,-0.516C0.331,-0.516 0.374,-0.506 0.412,-0.485C0.45,-0.464 0.48,-0.435 0.502,-0.397C0.524,-0.358 0.535,-0.312 0.535,-0.259C0.535,-0.203 0.524,-0.154 0.503,-0.113C0.482,-0.072 0.452,-0.04 0.415,-0.018C0.378,0.005 0.335,0.016 0.286,0.016ZM0.29,-0.055C0.317,-0.056 0.337,-0.065 0.351,-0.083C0.364,-0.101 0.374,-0.124 0.379,-0.151C0.384,-0.178 0.387,-0.206 0.387,-0.234C0.387,-0.259 0.385,-0.284 0.382,-0.309C0.378,-0.334 0.372,-0.357 0.364,-0.378C0.356,-0.399 0.345,-0.415 0.332,-0.428C0.318,-0.441 0.301,-0.447 0.281,-0.446C0.255,-0.445 0.235,-0.436 0.22,-0.418C0.205,-0.4 0.194,-0.378 0.188,-0.351C0.181,-0.324 0.178,-0.295 0.178,-0.266C0.178,-0.232 0.182,-0.199 0.189,-0.166C0.196,-0.133 0.208,-0.106 0.225,-0.086C0.241,-0.065 0.263,-0.054 0.29,-0.055Z" style="fill:rgb(9,16,22);fill-rule:nonzero;"/>
                </g>
                <g transform="matrix(375,0,0,375,2422.969222,360.648823)">
                    <path d="M0.025,-0.065C0.044,-0.065 0.057,-0.069 0.066,-0.076C0.074,-0.083 0.079,-0.094 0.081,-0.107C0.083,-0.121 0.084,-0.137 0.084,-0.154L0.084,-0.565C0.084,-0.577 0.084,-0.591 0.085,-0.607C0.086,-0.622 0.087,-0.637 0.088,-0.652C0.077,-0.651 0.065,-0.651 0.051,-0.65C0.036,-0.65 0.025,-0.65 0.018,-0.649L0.018,-0.725C0.049,-0.725 0.075,-0.727 0.097,-0.73C0.118,-0.733 0.134,-0.737 0.146,-0.742C0.159,-0.747 0.167,-0.751 0.172,-0.755L0.226,-0.755L0.226,-0.161C0.226,-0.152 0.226,-0.138 0.225,-0.121C0.224,-0.104 0.223,-0.088 0.222,-0.073C0.233,-0.074 0.245,-0.075 0.258,-0.075C0.271,-0.076 0.28,-0.076 0.287,-0.076L0.287,-0L0.025,-0L0.025,-0.065Z" style="fill:rgb(9,16,22);fill-rule:nonzero;"/>
                </g>
                <g transform="matrix(375,0,0,375,2539.969222,360.648823)">
                    <path d="M0.278,0.016C0.229,0.016 0.186,0.005 0.149,-0.017C0.112,-0.038 0.083,-0.069 0.062,-0.108C0.041,-0.148 0.031,-0.195 0.031,-0.249C0.031,-0.296 0.041,-0.339 0.062,-0.38C0.083,-0.421 0.112,-0.454 0.149,-0.479C0.187,-0.503 0.231,-0.516 0.281,-0.516C0.309,-0.516 0.336,-0.512 0.363,-0.505C0.39,-0.497 0.414,-0.484 0.435,-0.465C0.457,-0.446 0.474,-0.421 0.487,-0.389C0.501,-0.357 0.507,-0.317 0.506,-0.269L0.178,-0.263C0.178,-0.227 0.182,-0.195 0.192,-0.166C0.201,-0.137 0.215,-0.115 0.236,-0.098C0.257,-0.081 0.284,-0.073 0.319,-0.073C0.332,-0.073 0.347,-0.075 0.364,-0.08C0.382,-0.085 0.399,-0.093 0.416,-0.104C0.434,-0.115 0.451,-0.129 0.466,-0.148L0.511,-0.106C0.487,-0.072 0.461,-0.046 0.434,-0.029C0.407,-0.011 0.38,0.001 0.352,0.007C0.325,0.013 0.301,0.016 0.278,0.016ZM0.184,-0.333L0.368,-0.333C0.367,-0.361 0.363,-0.383 0.356,-0.4C0.349,-0.416 0.34,-0.428 0.328,-0.435C0.316,-0.442 0.302,-0.446 0.286,-0.446C0.257,-0.446 0.234,-0.435 0.217,-0.415C0.2,-0.394 0.189,-0.366 0.184,-0.333Z" style="fill:rgb(9,16,22);fill-rule:nonzero;"/>
                </g>
                <g transform="matrix(375,0,0,375,2741.719222,360.648823)">
                </g>
                <g transform="matrix(375,0,0,375,2840.344222,360.648823)">
                    <path d="M0.05,-0L0.05,-0.066C0.065,-0.067 0.078,-0.069 0.088,-0.072C0.099,-0.075 0.107,-0.083 0.113,-0.095C0.118,-0.107 0.121,-0.126 0.121,-0.153L0.121,-0.536C0.121,-0.554 0.121,-0.571 0.122,-0.588C0.123,-0.605 0.124,-0.617 0.125,-0.626C0.114,-0.625 0.101,-0.625 0.085,-0.625C0.069,-0.624 0.057,-0.624 0.05,-0.623L0.05,-0.7C0.097,-0.701 0.145,-0.701 0.192,-0.701C0.239,-0.701 0.287,-0.701 0.334,-0.702C0.393,-0.703 0.444,-0.696 0.487,-0.682C0.53,-0.668 0.564,-0.645 0.587,-0.614C0.61,-0.583 0.621,-0.54 0.62,-0.487C0.619,-0.459 0.612,-0.432 0.6,-0.407C0.587,-0.382 0.567,-0.359 0.541,-0.34C0.516,-0.321 0.483,-0.305 0.444,-0.294C0.457,-0.289 0.469,-0.28 0.481,-0.268C0.494,-0.256 0.504,-0.243 0.513,-0.23L0.56,-0.16C0.575,-0.137 0.588,-0.119 0.599,-0.106C0.61,-0.093 0.622,-0.083 0.633,-0.076C0.644,-0.07 0.657,-0.067 0.672,-0.066L0.672,-0L0.507,-0C0.495,-0.009 0.483,-0.021 0.472,-0.037C0.46,-0.054 0.447,-0.073 0.434,-0.094L0.36,-0.214C0.351,-0.227 0.344,-0.239 0.338,-0.248C0.331,-0.257 0.325,-0.265 0.318,-0.272L0.266,-0.272L0.266,-0.165C0.266,-0.146 0.266,-0.129 0.265,-0.112C0.264,-0.095 0.263,-0.083 0.262,-0.074C0.269,-0.075 0.279,-0.075 0.29,-0.075C0.301,-0.076 0.312,-0.076 0.324,-0.076C0.335,-0.077 0.342,-0.077 0.347,-0.077L0.347,-0L0.05,-0ZM0.314,-0.344C0.351,-0.344 0.381,-0.349 0.404,-0.36C0.427,-0.371 0.443,-0.388 0.454,-0.411C0.464,-0.433 0.469,-0.461 0.469,-0.495C0.469,-0.527 0.464,-0.552 0.454,-0.571C0.444,-0.589 0.431,-0.603 0.416,-0.612C0.401,-0.62 0.386,-0.626 0.371,-0.629C0.356,-0.631 0.343,-0.632 0.333,-0.632C0.319,-0.632 0.307,-0.63 0.297,-0.627C0.287,-0.624 0.279,-0.616 0.274,-0.605C0.269,-0.594 0.266,-0.576 0.266,-0.553L0.266,-0.348C0.273,-0.347 0.281,-0.347 0.289,-0.346C0.297,-0.345 0.305,-0.344 0.314,-0.344Z" style="fill:rgb(9,16,22);fill-rule:nonzero;"/>
                </g>
                <g transform="matrix(375,0,0,375,3092.344222,360.648823)">
                    <path d="M0.278,0.016C0.229,0.016 0.186,0.005 0.149,-0.017C0.112,-0.038 0.083,-0.069 0.062,-0.108C0.041,-0.148 0.031,-0.195 0.031,-0.249C0.031,-0.296 0.041,-0.339 0.062,-0.38C0.083,-0.421 0.112,-0.454 0.149,-0.479C0.187,-0.503 0.231,-0.516 0.281,-0.516C0.309,-0.516 0.336,-0.512 0.363,-0.505C0.39,-0.497 0.414,-0.484 0.435,-0.465C0.457,-0.446 0.474,-0.421 0.487,-0.389C0.501,-0.357 0.507,-0.317 0.506,-0.269L0.178,-0.263C0.178,-0.227 0.182,-0.195 0.192,-0.166C0.201,-0.137 0.215,-0.115 0.236,-0.098C0.257,-0.081 0.284,-0.073 0.319,-0.073C0.332,-0.073 0.347,-0.075 0.364,-0.08C0.382,-0.085 0.399,-0.093 0.416,-0.104C0.434,-0.115 0.451,-0.129 0.466,-0.148L0.511,-0.106C0.487,-0.072 0.461,-0.046 0.434,-0.029C0.407,-0.011 0.38,0.001 0.352,0.007C0.325,0.013 0.301,0.016 0.278,0.016ZM0.184,-0.333L0.368,-0.333C0.367,-0.361 0.363,-0.383 0.356,-0.4C0.349,-0.416 0.34,-0.428 0.328,-0.435C0.316,-0.442 0.302,-0.446 0.286,-0.446C0.257,-0.446 0.234,-0.435 0.217,-0.415C0.2,-0.394 0.189,-0.366 0.184,-0.333Z" style="fill:rgb(9,16,22);fill-rule:nonzero;"/>
                </g>
                <g transform="matrix(375,0,0,375,3294.094222,360.648823)">
                    <path d="M0.227,0.003L0.069,-0.344C0.062,-0.361 0.057,-0.373 0.053,-0.382C0.05,-0.391 0.049,-0.398 0.048,-0.405C0.047,-0.411 0.045,-0.418 0.043,-0.426L0.006,-0.424L0.006,-0.5L0.24,-0.5L0.24,-0.436C0.226,-0.435 0.217,-0.431 0.212,-0.424C0.207,-0.417 0.206,-0.407 0.207,-0.396C0.208,-0.384 0.211,-0.371 0.216,-0.358L0.268,-0.23C0.273,-0.217 0.279,-0.204 0.284,-0.191C0.289,-0.178 0.295,-0.164 0.3,-0.151L0.301,-0.151C0.306,-0.165 0.311,-0.179 0.317,-0.193C0.322,-0.207 0.326,-0.221 0.331,-0.235L0.374,-0.357C0.38,-0.374 0.386,-0.387 0.391,-0.397C0.396,-0.407 0.401,-0.417 0.407,-0.428L0.345,-0.424L0.345,-0.5L0.535,-0.5L0.535,-0.436C0.52,-0.433 0.506,-0.425 0.494,-0.411C0.482,-0.396 0.472,-0.38 0.463,-0.362C0.454,-0.345 0.447,-0.329 0.442,-0.316L0.314,0.003L0.227,0.003Z" style="fill:rgb(9,16,22);fill-rule:nonzero;"/>
                </g>
                <g transform="matrix(375,0,0,375,3495.844222,360.648823)">
                    <path d="M0.041,-0.065C0.06,-0.065 0.073,-0.069 0.081,-0.076C0.089,-0.083 0.094,-0.094 0.097,-0.107C0.099,-0.121 0.1,-0.137 0.1,-0.154L0.1,-0.32C0.1,-0.332 0.1,-0.346 0.101,-0.361C0.102,-0.377 0.103,-0.392 0.104,-0.407C0.093,-0.406 0.081,-0.406 0.067,-0.406C0.052,-0.405 0.041,-0.405 0.034,-0.404L0.034,-0.48C0.065,-0.48 0.091,-0.482 0.112,-0.485C0.133,-0.488 0.15,-0.492 0.163,-0.497C0.175,-0.502 0.183,-0.506 0.188,-0.51L0.242,-0.51L0.242,-0.161C0.242,-0.152 0.242,-0.138 0.241,-0.121C0.24,-0.104 0.239,-0.088 0.238,-0.073C0.249,-0.074 0.261,-0.075 0.274,-0.075C0.286,-0.076 0.296,-0.076 0.303,-0.076L0.303,-0L0.041,-0L0.041,-0.065ZM0.166,-0.589C0.143,-0.589 0.125,-0.597 0.11,-0.613C0.095,-0.629 0.088,-0.648 0.088,-0.671C0.088,-0.694 0.096,-0.713 0.111,-0.729C0.126,-0.745 0.144,-0.753 0.165,-0.753C0.186,-0.753 0.204,-0.745 0.218,-0.729C0.233,-0.713 0.24,-0.694 0.24,-0.671C0.24,-0.648 0.233,-0.629 0.22,-0.613C0.207,-0.597 0.189,-0.589 0.166,-0.589Z" style="fill:rgb(9,16,22);fill-rule:nonzero;"/>
                </g>
                <g transform="matrix(375,0,0,375,3615.844222,360.648823)">
                    <path d="M0.227,0.003L0.069,-0.344C0.062,-0.361 0.057,-0.373 0.053,-0.382C0.05,-0.391 0.049,-0.398 0.048,-0.405C0.047,-0.411 0.045,-0.418 0.043,-0.426L0.006,-0.424L0.006,-0.5L0.24,-0.5L0.24,-0.436C0.226,-0.435 0.217,-0.431 0.212,-0.424C0.207,-0.417 0.206,-0.407 0.207,-0.396C0.208,-0.384 0.211,-0.371 0.216,-0.358L0.268,-0.23C0.273,-0.217 0.279,-0.204 0.284,-0.191C0.289,-0.178 0.295,-0.164 0.3,-0.151L0.301,-0.151C0.306,-0.165 0.311,-0.179 0.317,-0.193C0.322,-0.207 0.326,-0.221 0.331,-0.235L0.374,-0.357C0.38,-0.374 0.386,-0.387 0.391,-0.397C0.396,-0.407 0.401,-0.417 0.407,-0.428L0.345,-0.424L0.345,-0.5L0.535,-0.5L0.535,-0.436C0.52,-0.433 0.506,-0.425 0.494,-0.411C0.482,-0.396 0.472,-0.38 0.463,-0.362C0.454,-0.345 0.447,-0.329 0.442,-0.316L0.314,0.003L0.227,0.003Z" style="fill:rgb(9,16,22);fill-rule:nonzero;"/>
                </g>
                <g transform="matrix(375,0,0,375,3816.094222,360.648823)">
                    <path d="M0.319,-0C0.318,-0.009 0.317,-0.017 0.317,-0.024C0.316,-0.03 0.316,-0.037 0.315,-0.046C0.292,-0.023 0.268,-0.007 0.243,0.002C0.218,0.011 0.192,0.016 0.166,0.016C0.123,0.016 0.09,0.003 0.066,-0.022C0.042,-0.047 0.03,-0.079 0.03,-0.117C0.03,-0.149 0.038,-0.176 0.054,-0.199C0.071,-0.222 0.093,-0.24 0.12,-0.255C0.146,-0.269 0.176,-0.28 0.209,-0.288C0.243,-0.295 0.276,-0.3 0.309,-0.301L0.309,-0.353C0.309,-0.37 0.307,-0.386 0.302,-0.4C0.298,-0.414 0.291,-0.425 0.281,-0.433C0.27,-0.441 0.256,-0.445 0.237,-0.444C0.224,-0.443 0.212,-0.441 0.2,-0.436C0.188,-0.431 0.178,-0.425 0.169,-0.416C0.174,-0.41 0.178,-0.404 0.179,-0.397C0.18,-0.39 0.181,-0.383 0.181,-0.378C0.181,-0.365 0.176,-0.351 0.165,-0.337C0.154,-0.322 0.137,-0.315 0.114,-0.316C0.094,-0.317 0.079,-0.324 0.068,-0.337C0.057,-0.35 0.052,-0.366 0.052,-0.384C0.052,-0.411 0.061,-0.434 0.081,-0.454C0.099,-0.473 0.125,-0.488 0.157,-0.499C0.189,-0.511 0.224,-0.516 0.263,-0.516C0.322,-0.516 0.367,-0.501 0.4,-0.471C0.432,-0.44 0.448,-0.392 0.448,-0.325L0.448,-0.267C0.448,-0.251 0.448,-0.235 0.448,-0.219C0.447,-0.203 0.447,-0.184 0.447,-0.161C0.447,-0.152 0.447,-0.138 0.446,-0.121C0.445,-0.104 0.444,-0.088 0.443,-0.073C0.454,-0.074 0.466,-0.075 0.479,-0.075C0.492,-0.076 0.501,-0.076 0.508,-0.076L0.508,-0L0.319,-0ZM0.308,-0.23C0.289,-0.228 0.272,-0.225 0.255,-0.22C0.238,-0.215 0.224,-0.209 0.211,-0.201C0.199,-0.193 0.19,-0.183 0.182,-0.172C0.175,-0.161 0.172,-0.148 0.172,-0.134C0.173,-0.115 0.179,-0.102 0.19,-0.094C0.201,-0.086 0.214,-0.082 0.229,-0.082C0.244,-0.082 0.259,-0.085 0.272,-0.092C0.285,-0.099 0.297,-0.107 0.308,-0.118L0.308,-0.23Z" style="fill:rgb(9,16,22);fill-rule:nonzero;"/>
                </g>
                <g transform="matrix(375,0,0,375,4012.594222,360.648823)">
                    <path d="M0.025,-0.065C0.044,-0.065 0.057,-0.069 0.066,-0.076C0.074,-0.083 0.079,-0.094 0.081,-0.107C0.083,-0.121 0.084,-0.137 0.084,-0.154L0.084,-0.565C0.084,-0.577 0.084,-0.591 0.085,-0.607C0.086,-0.622 0.087,-0.637 0.088,-0.652C0.077,-0.651 0.065,-0.651 0.051,-0.65C0.036,-0.65 0.025,-0.65 0.018,-0.649L0.018,-0.725C0.049,-0.725 0.075,-0.727 0.097,-0.73C0.118,-0.733 0.134,-0.737 0.146,-0.742C0.159,-0.747 0.167,-0.751 0.172,-0.755L0.226,-0.755L0.226,-0.161C0.226,-0.152 0.226,-0.138 0.225,-0.121C0.224,-0.104 0.223,-0.088 0.222,-0.073C0.233,-0.074 0.245,-0.075 0.258,-0.075C0.271,-0.076 0.28,-0.076 0.287,-0.076L0.287,-0L0.025,-0L0.025,-0.065Z" style="fill:rgb(9,16,22);fill-rule:nonzero;"/>
                </g>
                <g transform="matrix(375,0,0,375,4129.594222,360.648823)">
                </g>
            </g>
            <g transform="matrix(0.576775,0,0,2.121004,-61.714945,710.536464)">
                <g transform="matrix(250,0,0,250,2757.499222,360.648823)">
                </g>
                <text x="1987.969px" y="360.649px" style="font-family:'Lora-Regular', 'Lora';font-size:250px;fill:rgb(107,101,96);">ME<tspan x="2373.109px 2563.679px 2615.749px " y="360.649px 360.649px 360.649px ">N&apos;S</tspan></text>
            </g>
        </g>
        <g id="Bar" transform="matrix(0.604824,0,0,1.938135,-232.777769,183.358126)">
            <path d="M1877,43L1877,1568C1877,1569.656 1875.656,1571 1874,1571L1868,1571C1866.344,1571 1865,1569.656 1865,1568L1865,43C1865,41.344 1866.344,40 1868,40L1874,40C1875.656,40 1877,41.344 1877,43Z" style="fill:rgb(196,112,58);"/>
        </g>
        <g id="Logomark" transform="matrix(0.958292,0,0,0.874202,33.905194,220.614085)">
            <g id="RightFoot" transform="matrix(-0.576775,0,0,2.121004,1181.625801,-1535.607164)">
                <g id="sole" transform="matrix(1.81,0,0,5.375,-1121.69,-3984.375)">
                    <path d="M1194.493,972.008C1291.148,968.614 1297.769,1020.028 1273.77,1046.119C1266.574,1053.942 1242.893,1069.579 1237.774,1074.652C1224.339,1087.965 1345.993,1140.366 1234.083,1173.279C1200.027,1183.295 1114.685,1179.098 1099.644,1152.383C1075.1,1108.793 1112.885,1115.34 1087.122,1090.581C1058.228,1062.815 1027.149,1055.952 1020.572,1036.034C1011.119,1007.404 1067.162,976.478 1194.493,972.008Z" style="fill:rgb(9,16,22);"/>
                </g>
                <g id="pinky-toe" serif:id="pinky toe" transform="matrix(0.403096,-0.150553,0.219444,0.587544,-18.925825,924.64564)">
                    <circle cx="1149" cy="1077" r="100" style="fill:rgb(9,16,22);"/>
                </g>
                <g id="toe" transform="matrix(0.463096,-0.172963,0.243721,0.652544,-51.584489,781.889238)">
                    <circle cx="1149" cy="1077" r="100" style="fill:rgb(9,16,22);"/>
                </g>
                <g id="toe1" serif:id="toe" transform="matrix(0.55,0,0,0.775,208.05,370.825)">
                    <circle cx="1149" cy="1077" r="100" style="fill:rgb(9,16,22);"/>
                </g>
                <g id="toe2" serif:id="toe" transform="matrix(0.61,0,0,0.855,249.11,212.665)">
                    <circle cx="1149" cy="1077" r="100" style="fill:rgb(9,16,22);"/>
                </g>
                <g id="big-toe" serif:id="big toe" transform="matrix(1.015,0,0,1.295,-45.735,-302.215)">
                    <circle cx="1149" cy="1077" r="100" style="fill:rgb(9,16,22);"/>
                </g>
            </g>
            <g id="Left-Foot" serif:id="Left Foot" transform="matrix(0.576775,0,0,2.121004,-347.795437,-2002.228126)">
                <g id="sole1" serif:id="sole" transform="matrix(1.81,0,0,5.375,-1121.69,-3984.375)">
                    <path d="M1194.493,972.008C1291.148,968.614 1297.769,1020.028 1273.77,1046.119C1266.574,1053.942 1242.893,1069.579 1237.774,1074.652C1224.339,1087.965 1345.993,1140.366 1234.083,1173.279C1200.027,1183.295 1114.685,1179.098 1099.644,1152.383C1075.1,1108.793 1112.885,1115.34 1087.122,1090.581C1058.228,1062.815 1027.149,1055.952 1020.572,1036.034C1011.119,1007.404 1067.162,976.478 1194.493,972.008Z" style="fill:rgb(9,16,22);"/>
                </g>
                <g id="pinky-toe1" serif:id="pinky toe" transform="matrix(0.403096,-0.150553,0.219444,0.587544,-18.925825,924.64564)">
                    <circle cx="1149" cy="1077" r="100" style="fill:rgb(9,16,22);"/>
                </g>
                <g id="toe3" serif:id="toe" transform="matrix(0.463096,-0.172963,0.243721,0.652544,-51.584489,781.889238)">
                    <circle cx="1149" cy="1077" r="100" style="fill:rgb(9,16,22);"/>
                </g>
                <g id="toe4" serif:id="toe" transform="matrix(0.55,0,0,0.775,208.05,370.825)">
                    <circle cx="1149" cy="1077" r="100" style="fill:rgb(9,16,22);"/>
                </g>
                <g id="toe5" serif:id="toe" transform="matrix(0.61,0,0,0.855,249.11,212.665)">
                    <circle cx="1149" cy="1077" r="100" style="fill:rgb(9,16,22);"/>
                </g>
                <g id="big-toe1" serif:id="big toe" transform="matrix(1.015,0,0,1.295,-45.735,-302.215)">
                    <circle cx="1149" cy="1077" r="100" style="fill:rgb(9,16,22);"/>
                </g>
            </g>
        </g>
    </g>
</svg>
