<svg viewBox="0 0 1350 1654" xmlns="http://www.w3.org/2000/svg">
  <g transform="matrix(1.510822,0,0,0.471475,0,0)">
    <g transform="matrix(0.958292,0,0,0.874202,33.905194,220.614085)">
      <g transform="matrix(-0.576775,0,0,2.121004,1181.625801,-1535.607164)">
        <g transform="matrix(1.81,0,0,5.375,-1121.69,-3984.375)">
          <path d="M1194.493,972.008C1291.148,968.614 1297.769,1020.028 1273.77,1046.119C1266.574,1053.942 1242.893,1069.579 1237.774,1074.652C1224.339,1087.965 1345.993,1140.366 1234.083,1173.279C1200.027,1183.295 1114.685,1179.098 1099.644,1152.383C1075.1,1108.793 1112.885,1115.34 1087.122,1090.581C1058.228,1062.815 1027.149,1055.952 1020.572,1036.034C1011.119,1007.404 1067.162,976.478 1194.493,972.008Z" fill="#252B28"/>
        </g>
        <g transform="matrix(0.403096,-0.150553,0.219444,0.587544,-18.925825,924.64564)"><circle cx="1149" cy="1077" r="100" fill="#252B28"/></g>
        <g transform="matrix(0.463096,-0.172963,0.243721,0.652544,-51.584489,781.889238)"><circle cx="1149" cy="1077" r="100" fill="#252B28"/></g>
        <g transform="matrix(0.55,0,0,0.775,208.05,370.825)"><circle cx="1149" cy="1077" r="100" fill="#252B28"/></g>
        <g transform="matrix(0.61,0,0,0.855,249.11,212.665)"><circle cx="1149" cy="1077" r="100" fill="#252B28"/></g>
        <g transform="matrix(1.015,0,0,1.295,-45.735,-302.215)"><circle cx="1149" cy="1077" r="100" fill="#252B28"/></g>
      </g>
      <g transform="matrix(0.576775,0,0,2.121004,-347.795437,-2002.228126)">
        <g transform="matrix(1.81,0,0,5.375,-1121.69,-3984.375)">
          <path d="M1194.493,972.008C1291.148,968.614 1297.769,1020.028 1273.77,1046.119C1266.574,1053.942 1242.893,1069.579 1237.774,1074.652C1224.339,1087.965 1345.993,1140.366 1234.083,1173.279C1200.027,1183.295 1114.685,1179.098 1099.644,1152.383C1075.1,1108.793 1112.885,1115.34 1087.122,1090.581C1058.228,1062.815 1027.149,1055.952 1020.572,1036.034C1011.119,1007.404 1067.162,976.478 1194.493,972.008Z" fill="#252B28"/>
        </g>
        <g transform="matrix(0.403096,-0.150553,0.219444,0.587544,-18.925825,924.64564)"><circle cx="1149" cy="1077" r="100" fill="#252B28"/></g>
        <g transform="matrix(0.463096,-0.172963,0.243721,0.652544,-51.584489,781.889238)"><circle cx="1149" cy="1077" r="100" fill="#252B28"/></g>
        <g transform="matrix(0.55,0,0,0.775,208.05,370.825)"><circle cx="1149" cy="1077" r="100" fill="#252B28"/></g>
        <g transform="matrix(0.61,0,0,0.855,249.11,212.665)"><circle cx="1149" cy="1077" r="100" fill="#252B28"/></g>
        <g transform="matrix(1.015,0,0,1.295,-45.735,-302.215)"><circle cx="1149" cy="1077" r="100" fill="#252B28"/></g>
      </g>
    </g>
  </g>
</svg>
