<svg width="1920" height="1306" viewBox="0 0 1920 1306" fill="none" xmlns="http://www.w3.org/2000/svg">
<rect width="1920" height="1306" fill="#F1EFEC"/>
<text fill="#BE7241" style="white-space: pre" xml:space="preserve" font-family="DM Sans" font-size="12" font-weight="bold" letter-spacing="0em"><tspan x="120" y="92.092">ARTIFACT 02 &#xb7; USER FLOWS</tspan></text>
<text fill="#1D1C1B" style="white-space: pre" xml:space="preserve" font-family="Lora" font-size="40" font-weight="500" letter-spacing="0em"><tspan x="120" y="152.14">Two paths into the product, both ending in a clear next step.</tspan></text>
<text fill="#938C86" style="white-space: pre" xml:space="preserve" font-family="DM Sans" font-size="16" letter-spacing="0em"><tspan x="120" y="195.956">Flow A is the priority path. Assessment CTA, symptom-first triage that branches into one of three Q2 sets, results, personalized recommendations. Flow B is the discovery path. Homepage, </tspan><tspan x="120" y="216.956">Guides, article, related reviews or routines. Both surface a concrete next action; both feed the same recommendation surfaces.</tspan></text>
<rect x="1640" y="80" width="160" height="80" rx="2" fill="#EDEAE6"/>
<text fill="#1D1C1B" style="white-space: pre" xml:space="preserve" font-family="Lora" font-size="32" font-weight="500" letter-spacing="0em"><tspan x="1660" y="126.212">2</tspan></text>
<text fill="#938C86" style="white-space: pre" xml:space="preserve" font-family="DM Sans" font-size="12" letter-spacing="0em"><tspan x="1660" y="140.092">user flows</tspan></text>
<text fill="#1D1C1B" style="white-space: pre" xml:space="preserve" font-family="DM Sans" font-size="14" font-weight="bold" letter-spacing="0em"><tspan x="120" y="293.774">FLOW A &#xb7; ASSESSMENT &#x2192; PRODUCT</tspan></text>
<text fill="#938C86" style="white-space: pre" xml:space="preserve" font-family="DM Sans" font-size="14" font-style="italic" letter-spacing="0em"><tspan x="120" y="317.774">For a man arriving with a specific symptom. Triage routes him into the right Q2 set, then to recommendations that map onto Guides, Routines, and Reviews.</tspan></text>
<rect x="120.5" y="410.5" width="167" height="77" rx="3.5" fill="white"/>
<rect x="120.5" y="410.5" width="167" height="77" rx="3.5" stroke="#BBC4CD"/>
<text fill="#938C86" style="white-space: pre" xml:space="preserve" font-family="DM Sans" font-size="10" letter-spacing="0em"><tspan x="202" y="432.91">/</tspan></text>
<text fill="#1D1C1B" style="white-space: pre" xml:space="preserve" font-family="DM Sans" font-size="14" font-weight="600" letter-spacing="0em"><tspan x="177" y="453.774">Landing</tspan></text>
<text fill="#BE7241" style="white-space: pre" xml:space="preserve" font-family="DM Sans" font-size="10" font-weight="bold" letter-spacing="0em"><tspan x="186" y="471.91">ARRIVE</tspan></text>
<rect x="320.75" y="410.75" width="166.5" height="76.5" rx="3.25" fill="white"/>
<rect x="320.75" y="410.75" width="166.5" height="76.5" rx="3.25" stroke="#BE7241" stroke-width="1.5"/>
<text fill="#938C86" style="white-space: pre" xml:space="preserve" font-family="DM Sans" font-size="10" letter-spacing="0em"><tspan x="394.5" y="432.91">CTA</tspan></text>
<text fill="#1D1C1B" style="white-space: pre" xml:space="preserve" font-family="DM Sans" font-size="14" font-weight="600" letter-spacing="0em"><tspan x="345.5" y="453.774">Take Assessment</tspan></text>
<text fill="#BE7241" style="white-space: pre" xml:space="preserve" font-family="DM Sans" font-size="10" font-weight="bold" letter-spacing="0em"><tspan x="383" y="471.91">COMMIT</tspan></text>
<rect x="520.75" y="410.75" width="166.5" height="76.5" rx="3.25" fill="white"/>
<rect x="520.75" y="410.75" width="166.5" height="76.5" rx="3.25" stroke="#BE7241" stroke-width="1.5"/>
<text fill="#938C86" style="white-space: pre" xml:space="preserve" font-family="DM Sans" font-size="10" letter-spacing="0em"><tspan x="574" y="432.91">/assessment</tspan></text>
<text fill="#1D1C1B" style="white-space: pre" xml:space="preserve" font-family="DM Sans" font-size="14" font-weight="600" letter-spacing="0em"><tspan x="556" y="453.774">Triage &#xb7; Step 0</tspan></text>
<text fill="#BE7241" style="white-space: pre" xml:space="preserve" font-family="DM Sans" font-size="10" font-weight="bold" letter-spacing="0em"><tspan x="584.5" y="471.91">LOCATE</tspan></text>
<rect x="900.5" y="310.5" width="167" height="77" rx="3.5" fill="white"/>
<rect x="900.5" y="310.5" width="167" height="77" rx="3.5" stroke="#BBC4CD"/>
<text fill="#938C86" style="white-space: pre" xml:space="preserve" font-family="DM Sans" font-size="10" letter-spacing="0em"><tspan x="954" y="332.91">/assessment</tspan></text>
<text fill="#1D1C1B" style="white-space: pre" xml:space="preserve" font-family="DM Sans" font-size="14" font-weight="600" letter-spacing="0em"><tspan x="942.5" y="353.774">Q2 &#xb7; Pain set</tspan></text>
<text fill="#BE7241" style="white-space: pre" xml:space="preserve" font-family="DM Sans" font-size="10" font-weight="bold" letter-spacing="0em"><tspan x="961.5" y="371.91">NARROW</tspan></text>
<rect x="900.5" y="410.5" width="167" height="77" rx="3.5" fill="white"/>
<rect x="900.5" y="410.5" width="167" height="77" rx="3.5" stroke="#BBC4CD"/>
<text fill="#938C86" style="white-space: pre" xml:space="preserve" font-family="DM Sans" font-size="10" letter-spacing="0em"><tspan x="954" y="432.91">/assessment</tspan></text>
<text fill="#1D1C1B" style="white-space: pre" xml:space="preserve" font-family="DM Sans" font-size="14" font-weight="600" letter-spacing="0em"><tspan x="940.5" y="453.774">Q2 &#xb7; Nails set</tspan></text>
<text fill="#BE7241" style="white-space: pre" xml:space="preserve" font-family="DM Sans" font-size="10" font-weight="bold" letter-spacing="0em"><tspan x="961.5" y="471.91">NARROW</tspan></text>
<rect x="900.5" y="510.5" width="167" height="77" rx="3.5" fill="white"/>
<rect x="900.5" y="510.5" width="167" height="77" rx="3.5" stroke="#BBC4CD"/>
<text fill="#938C86" style="white-space: pre" xml:space="preserve" font-family="DM Sans" font-size="10" letter-spacing="0em"><tspan x="954" y="532.91">/assessment</tspan></text>
<text fill="#1D1C1B" style="white-space: pre" xml:space="preserve" font-family="DM Sans" font-size="14" font-weight="600" letter-spacing="0em"><tspan x="948" y="553.774">Q2 &#xb7; Fit set</tspan></text>
<text fill="#BE7241" style="white-space: pre" xml:space="preserve" font-family="DM Sans" font-size="10" font-weight="bold" letter-spacing="0em"><tspan x="961.5" y="571.91">NARROW</tspan></text>
<rect x="1100.5" y="410.5" width="167" height="77" rx="3.5" fill="#EAE8E5"/>
<rect x="1100.5" y="410.5" width="167" height="77" rx="3.5" stroke="#BBC4CD"/>
<text fill="#938C86" style="white-space: pre" xml:space="preserve" font-family="DM Sans" font-size="10" letter-spacing="0em"><tspan x="1136.5" y="434.91">/assessment/results</tspan></text>
<text fill="#1D1C1B" style="white-space: pre" xml:space="preserve" font-family="DM Sans" font-size="14" font-weight="600" letter-spacing="0em"><tspan x="1133" y="455.774">Results loading</tspan></text>
<text fill="#BE7241" style="white-space: pre" xml:space="preserve" font-family="DM Sans" font-size="10" font-weight="bold" letter-spacing="0em"><tspan x="1161" y="471.91">PROCESS</tspan></text>
<rect x="1300.75" y="410.75" width="166.5" height="76.5" rx="3.25" fill="white"/>
<rect x="1300.75" y="410.75" width="166.5" height="76.5" rx="3.25" stroke="#BE7241" stroke-width="1.5"/>
<text fill="#938C86" style="white-space: pre" xml:space="preserve" font-family="DM Sans" font-size="10" letter-spacing="0em"><tspan x="1336.5" y="432.91">/assessment/results</tspan></text>
<text fill="#1D1C1B" style="white-space: pre" xml:space="preserve" font-family="DM Sans" font-size="14" font-weight="600" letter-spacing="0em"><tspan x="1320.5" y="453.774">Recommendations</tspan></text>
<text fill="#BE7241" style="white-space: pre" xml:space="preserve" font-family="DM Sans" font-size="10" font-weight="bold" letter-spacing="0em"><tspan x="1351.5" y="471.91">RECOMMEND</tspan></text>
<rect x="1500.5" y="350.5" width="167" height="77" rx="3.5" fill="#EAE8E5"/>
<rect x="1500.5" y="350.5" width="167" height="77" rx="3.5" stroke="#BBC4CD"/>
<text fill="#1D1C1B" style="white-space: pre" xml:space="preserve" font-family="DM Sans" font-size="14" font-weight="600" letter-spacing="0em"><tspan x="1521.5" y="395.774">Amazon outbound</tspan></text>
<text fill="#BE7241" style="white-space: pre" xml:space="preserve" font-family="DM Sans" font-size="10" font-weight="bold" letter-spacing="0em"><tspan x="1574" y="411.91">BUY</tspan></text>
<rect x="1500.5" y="470.5" width="167" height="77" rx="3.5" fill="#EAE8E5"/>
<rect x="1500.5" y="470.5" width="167" height="77" rx="3.5" stroke="#BBC4CD"/>
<text fill="#938C86" style="white-space: pre" xml:space="preserve" font-family="DM Sans" font-size="10" letter-spacing="0em"><tspan x="1510" y="494.91">/routines/[slug] &#xb7; /reviews/[slug]</tspan></text>
<text fill="#1D1C1B" style="white-space: pre" xml:space="preserve" font-family="DM Sans" font-size="14" font-weight="600" letter-spacing="0em"><tspan x="1529.5" y="515.774">Routine &#xb7; Review</tspan></text>
<text fill="#BE7241" style="white-space: pre" xml:space="preserve" font-family="DM Sans" font-size="10" font-weight="bold" letter-spacing="0em"><tspan x="1562" y="531.91">EXPLORE</tspan></text>
<line x1="290" y1="448.5" x2="312" y2="448.5" stroke="#1D1C1B"/>
<path fill-rule="evenodd" clip-rule="evenodd" d="M310 445L318 449L310 453V445Z" fill="#1D1C1B"/>
<line x1="490" y1="448.5" x2="512" y2="448.5" stroke="#BE7241"/>
<path fill-rule="evenodd" clip-rule="evenodd" d="M510 445L518 449L510 453V445Z" fill="#BE7241"/>
<text fill="#938C86" style="white-space: pre" xml:space="preserve" font-family="DM Sans" font-size="10" font-style="italic" letter-spacing="0em"><tspan x="825" y="347.91">if pain</tspan></text>
<text fill="#938C86" style="white-space: pre" xml:space="preserve" font-family="DM Sans" font-size="10" font-style="italic" letter-spacing="0em"><tspan x="825" y="441.91">if nails</tspan></text>
<text fill="#938C86" style="white-space: pre" xml:space="preserve" font-family="DM Sans" font-size="10" font-style="italic" letter-spacing="0em"><tspan x="825" y="569.91">if fit/footwear</tspan></text>
<line x1="1068" y1="348.5" x2="1070" y2="348.5" stroke="#938C86"/>
<line x1="1068" y1="448.5" x2="1070" y2="448.5" stroke="#938C86"/>
<line x1="1068" y1="548.5" x2="1070" y2="548.5" stroke="#938C86"/>
<line x1="1070.5" y1="349" x2="1070.5" y2="549" stroke="#938C86"/>
<line x1="1070" y1="448.5" x2="1094" y2="448.5" stroke="#938C86"/>
<path fill-rule="evenodd" clip-rule="evenodd" d="M1092 445L1100 449L1092 453V445Z" fill="#938C86"/>
<line x1="1270" y1="448.5" x2="1292" y2="448.5" stroke="#BE7241"/>
<path fill-rule="evenodd" clip-rule="evenodd" d="M1290 445L1298 449L1290 453V445Z" fill="#BE7241"/>
<line x1="1468" y1="448.5" x2="1470" y2="448.5" stroke="#938C86"/>
<line x1="1470.5" y1="389" x2="1470.5" y2="509" stroke="#938C86"/>
<line x1="1470" y1="388.5" x2="1494" y2="388.5" stroke="#938C86"/>
<path fill-rule="evenodd" clip-rule="evenodd" d="M1492 385L1500 389L1492 393V385Z" fill="#938C86"/>
<line x1="1470" y1="508.5" x2="1494" y2="508.5" stroke="#938C86"/>
<path fill-rule="evenodd" clip-rule="evenodd" d="M1492 505L1500 509L1492 513V505Z" fill="#938C86"/>
<mask id="path-69-inside-1_33253_2" fill="white">
<path d="M120 612C120 610.895 120.895 610 122 610H1798C1799.1 610 1800 610.895 1800 612V688C1800 689.105 1799.1 690 1798 690H122C120.895 690 120 689.105 120 688V612Z"/>
</mask>
<path d="M120 612C120 610.895 120.895 610 122 610H1798C1799.1 610 1800 610.895 1800 612V688C1800 689.105 1799.1 690 1798 690H122C120.895 690 120 689.105 120 688V612Z" fill="#EDEAE6"/>
<path d="M120 610H1800H120ZM1800 690H120H1800ZM122 690C119.239 690 117 687.761 117 685V615C117 612.239 119.239 610 122 610H123C123 610 123 610.895 123 612V688C123 689.105 123 690 123 690H122ZM1800 610V690V610Z" fill="#BE7241" mask="url(#path-69-inside-1_33253_2)"/>
<text fill="#BE7241" style="white-space: pre" xml:space="preserve" font-family="DM Sans" font-size="10" font-weight="bold" letter-spacing="0em"><tspan x="140" y="633.91">DECISION NOTE</tspan></text>
<text fill="#1D1C1B" style="white-space: pre" xml:space="preserve" font-family="Lora" font-size="14" font-style="italic" letter-spacing="0em"><tspan x="140" y="658.124">Step 0 routes by location first because symptom-first beats nav-first for this audience. Q2 sets keep each branch under 4 questions. Completion holds above 70% in v2 testing. Amazon outbound is the v1 ending; the internal route is the pivot once products are live.</tspan></text>
<text fill="#1D1C1B" style="white-space: pre" xml:space="preserve" font-family="DM Sans" font-size="14" font-weight="bold" letter-spacing="0em"><tspan x="120" y="783.774">FLOW B &#xb7; BROWSE GUIDES &#x2192; PRODUCT</tspan></text>
<text fill="#938C86" style="white-space: pre" xml:space="preserve" font-family="DM Sans" font-size="14" font-style="italic" letter-spacing="0em"><tspan x="120" y="807.774">For a man arriving without a specific symptom. He browses Guides, lands in an article, and is offered related Reviews or Routines as the next action.</tspan></text>
<rect x="120.5" y="880.5" width="167" height="77" rx="3.5" fill="white"/>
<rect x="120.5" y="880.5" width="167" height="77" rx="3.5" stroke="#BBC4CD"/>
<text fill="#938C86" style="white-space: pre" xml:space="preserve" font-family="DM Sans" font-size="10" letter-spacing="0em"><tspan x="202" y="902.91">/</tspan></text>
<text fill="#1D1C1B" style="white-space: pre" xml:space="preserve" font-family="DM Sans" font-size="14" font-weight="600" letter-spacing="0em"><tspan x="177" y="923.774">Landing</tspan></text>
<text fill="#BE7241" style="white-space: pre" xml:space="preserve" font-family="DM Sans" font-size="10" font-weight="bold" letter-spacing="0em"><tspan x="186" y="941.91">ARRIVE</tspan></text>
<rect x="380.75" y="880.75" width="166.5" height="76.5" rx="3.25" fill="white"/>
<rect x="380.75" y="880.75" width="166.5" height="76.5" rx="3.25" stroke="#BE7241" stroke-width="1.5"/>
<text fill="#938C86" style="white-space: pre" xml:space="preserve" font-family="DM Sans" font-size="10" letter-spacing="0em"><tspan x="446.5" y="902.91">/guides</tspan></text>
<text fill="#1D1C1B" style="white-space: pre" xml:space="preserve" font-family="DM Sans" font-size="14" font-weight="600" letter-spacing="0em"><tspan x="420" y="923.774">Guides Index</tspan></text>
<text fill="#BE7241" style="white-space: pre" xml:space="preserve" font-family="DM Sans" font-size="10" font-weight="bold" letter-spacing="0em"><tspan x="447.5" y="941.91">LEARN</tspan></text>
<rect x="640.75" y="880.75" width="166.5" height="76.5" rx="3.25" fill="white"/>
<rect x="640.75" y="880.75" width="166.5" height="76.5" rx="3.25" stroke="#BE7241" stroke-width="1.5"/>
<text fill="#938C86" style="white-space: pre" xml:space="preserve" font-family="DM Sans" font-size="10" letter-spacing="0em"><tspan x="692" y="902.91">/guides/[slug]</tspan></text>
<text fill="#1D1C1B" style="white-space: pre" xml:space="preserve" font-family="DM Sans" font-size="14" font-weight="600" letter-spacing="0em"><tspan x="680.5" y="923.774">Article detail</tspan></text>
<text fill="#BE7241" style="white-space: pre" xml:space="preserve" font-family="DM Sans" font-size="10" font-weight="bold" letter-spacing="0em"><tspan x="710.5" y="941.91">READ</tspan></text>
<rect x="900.5" y="880.5" width="167" height="77" rx="3.5" fill="#EAE8E5"/>
<rect x="900.5" y="880.5" width="167" height="77" rx="3.5" stroke="#BBC4CD"/>
<text fill="#1D1C1B" style="white-space: pre" xml:space="preserve" font-family="DM Sans" font-size="14" font-weight="600" letter-spacing="0em"><tspan x="933.5" y="925.774">Related callout</tspan></text>
<text fill="#BE7241" style="white-space: pre" xml:space="preserve" font-family="DM Sans" font-size="10" font-weight="bold" letter-spacing="0em"><tspan x="958.5" y="941.91">CONSIDER</tspan></text>
<rect x="1200.5" y="820.5" width="167" height="77" rx="3.5" fill="#EAE8E5"/>
<rect x="1200.5" y="820.5" width="167" height="77" rx="3.5" stroke="#BBC4CD"/>
<text fill="#938C86" style="white-space: pre" xml:space="preserve" font-family="DM Sans" font-size="10" letter-spacing="0em"><tspan x="1249.5" y="844.91">/reviews/[slug]</tspan></text>
<text fill="#1D1C1B" style="white-space: pre" xml:space="preserve" font-family="DM Sans" font-size="14" font-weight="600" letter-spacing="0em"><tspan x="1239.5" y="865.774">Review detail</tspan></text>
<text fill="#BE7241" style="white-space: pre" xml:space="preserve" font-family="DM Sans" font-size="10" font-weight="bold" letter-spacing="0em"><tspan x="1259" y="881.91">EVALUATE</tspan></text>
<rect x="1200.5" y="940.5" width="167" height="77" rx="3.5" fill="#EAE8E5"/>
<rect x="1200.5" y="940.5" width="167" height="77" rx="3.5" stroke="#BBC4CD"/>
<text fill="#1D1C1B" style="white-space: pre" xml:space="preserve" font-family="DM Sans" font-size="14" font-weight="600" letter-spacing="0em"><tspan x="1221.5" y="985.774">Amazon outbound</tspan></text>
<text fill="#BE7241" style="white-space: pre" xml:space="preserve" font-family="DM Sans" font-size="10" font-weight="bold" letter-spacing="0em"><tspan x="1274" y="1001.91">BUY</tspan></text>
<line x1="290" y1="918.5" x2="372" y2="918.5" stroke="#1D1C1B"/>
<path fill-rule="evenodd" clip-rule="evenodd" d="M370 915L378 919L370 923V915Z" fill="#1D1C1B"/>
<line x1="550" y1="918.5" x2="632" y2="918.5" stroke="#BE7241"/>
<path fill-rule="evenodd" clip-rule="evenodd" d="M630 915L638 919L630 923V915Z" fill="#BE7241"/>
<line x1="810" y1="918.5" x2="892" y2="918.5" stroke="#BE7241"/>
<path fill-rule="evenodd" clip-rule="evenodd" d="M890 915L898 919L890 923V915Z" fill="#BE7241"/>
<line x1="1068" y1="918.5" x2="1170" y2="918.5" stroke="#938C86"/>
<line x1="1170.5" y1="859" x2="1170.5" y2="979" stroke="#938C86"/>
<line x1="1170" y1="858.5" x2="1194" y2="858.5" stroke="#938C86"/>
<path fill-rule="evenodd" clip-rule="evenodd" d="M1192 855L1200 859L1192 863V855Z" fill="#938C86"/>
<line x1="1170" y1="978.5" x2="1194" y2="978.5" stroke="#938C86"/>
<path fill-rule="evenodd" clip-rule="evenodd" d="M1192 975L1200 979L1192 983V975Z" fill="#938C86"/>
<text fill="#938C86" style="white-space: pre" xml:space="preserve" font-family="DM Sans" font-size="10" font-style="italic" letter-spacing="0em"><tspan x="388" y="979.91">symptom tag rail filters this index</tspan></text>
<mask id="path-110-inside-2_33253_2" fill="white">
<path d="M120 1062C120 1060.9 120.895 1060 122 1060H1798C1799.1 1060 1800 1060.9 1800 1062V1138C1800 1139.1 1799.1 1140 1798 1140H122C120.895 1140 120 1139.1 120 1138V1062Z"/>
</mask>
<path d="M120 1062C120 1060.9 120.895 1060 122 1060H1798C1799.1 1060 1800 1060.9 1800 1062V1138C1800 1139.1 1799.1 1140 1798 1140H122C120.895 1140 120 1139.1 120 1138V1062Z" fill="#EDEAE6"/>
<path d="M120 1060H1800H120ZM1800 1140H120H1800ZM122 1140C119.239 1140 117 1137.76 117 1135V1065C117 1062.24 119.239 1060 122 1060H123C123 1060 123 1060.9 123 1062V1138C123 1139.1 123 1140 123 1140H122ZM1800 1060V1140V1060Z" fill="#BE7241" mask="url(#path-110-inside-2_33253_2)"/>
<text fill="#BE7241" style="white-space: pre" xml:space="preserve" font-family="DM Sans" font-size="10" font-weight="bold" letter-spacing="0em"><tspan x="140" y="1083.91">DECISION NOTE</tspan></text>
<text fill="#1D1C1B" style="white-space: pre" xml:space="preserve" font-family="Lora" font-size="14" font-style="italic" letter-spacing="0em"><tspan x="140" y="1108.12">Article ends with two next actions, never one. A curated Review and a non-affiliate Routine so the path does not feel like an ad funnel. Symptom tags on the article and the index keep the rail consistent with Flow A.</tspan></text>
<rect x="120" y="1170" width="1100" height="56" rx="2" fill="#EDEAE6"/>
<rect x="140.5" y="1191.5" width="19" height="13" rx="1.5" fill="white" stroke="#BBC4CD"/>
<text fill="#1D1C1B" style="white-space: pre" xml:space="preserve" font-family="DM Sans" font-size="12" font-weight="500" letter-spacing="0em"><tspan x="172" y="1201.09">Primary screen</tspan></text>
<rect x="430.75" y="1191.75" width="18.5" height="12.5" rx="1.25" fill="white" stroke="#BE7241" stroke-width="1.5"/>
<text fill="#1D1C1B" style="white-space: pre" xml:space="preserve" font-family="DM Sans" font-size="12" font-weight="500" letter-spacing="0em"><tspan x="462" y="1201.09">Active path &#xb7; Priority</tspan></text>
<rect x="720" y="1191" width="20" height="14" rx="2" fill="#EAE8E5"/>
<text fill="#1D1C1B" style="white-space: pre" xml:space="preserve" font-family="DM Sans" font-size="12" font-weight="500" letter-spacing="0em"><tspan x="752" y="1201.09">System state &#xb7; Outbound &#xb7; Detail page</tspan></text>
<text fill="#1D1C1B" style="white-space: pre" xml:space="preserve" font-family="DM Sans" font-size="12" font-weight="500" letter-spacing="0em"><tspan x="1042" y="1201.09">Decision branch</tspan></text>
<path fill-rule="evenodd" clip-rule="evenodd" d="M1026 1190L1034 1198L1026 1206L1018 1198L1026 1190Z" fill="white" stroke="#BE7241" stroke-width="1.5"/>
<path fill-rule="evenodd" clip-rule="evenodd" d="M770 389L830 449L770 509L710 449L770 389Z" fill="white" stroke="#BE7241" stroke-width="1.5"/>
<text fill="#BE7241" style="white-space: pre" xml:space="preserve" font-family="DM Sans" font-size="9" font-weight="bold" letter-spacing="0em"><tspan x="764.784" y="436.069">Q1</tspan></text>
<text fill="#1D1C1B" style="white-space: pre" xml:space="preserve" font-family="DM Sans" font-size="11" font-weight="500" letter-spacing="0em"><tspan x="733.579" y="455.751">Where does it </tspan><tspan x="756.062" y="469.751">hurt?</tspan></text>
<line x1="690" y1="448.5" x2="702" y2="448.5" stroke="#BE7241"/>
<path fill-rule="evenodd" clip-rule="evenodd" d="M702 445L710 449L702 453V445Z" fill="#BE7241"/>
<line x1="829.583" y1="448.725" x2="895.583" y2="348.725" stroke="#938C86"/>
<line x1="830" y1="448.5" x2="896" y2="448.5" stroke="#938C86"/>
<line x1="830.417" y1="448.725" x2="896.417" y2="548.725" stroke="#938C86"/>
</svg>
