<svg width="1920" height="1722" viewBox="0 0 1920 1722" fill="none" xmlns="http://www.w3.org/2000/svg">
<rect width="1920" height="1722" fill="white"/>
<text fill="#BE7241" style="white-space: pre" xml:space="preserve" font-family="DM Sans" font-size="11" font-weight="500" letter-spacing="0.12em"><tspan x="120" y="90.751">ARTIFACT 03A &#xb7; PROBLEM &#38; COMPARATIVE ANALYSIS</tspan></text>
<text fill="#1D1C1B" style="white-space: pre" xml:space="preserve" font-family="Lora" font-size="44" letter-spacing="0em"><tspan x="120" y="155.104">The assessment is the moat. The redesign earns it.</tspan></text>
<text fill="#938C86" style="white-space: pre" xml:space="preserve" font-family="DM Sans" font-size="14" letter-spacing="0em"><tspan x="120" y="215.774">Current state of the live assessment, the gaps worth closing, and five comparable intake tools mined for moves worth borrowing.</tspan></text>
<text fill="#BE7241" style="white-space: pre" xml:space="preserve" font-family="DM Sans" font-size="11" font-weight="500" letter-spacing="0.12em"><tspan x="120" y="300.751">SECTION 01 &#xb7; CURRENT STATE AUDIT</tspan></text>
<text fill="#1D1C1B" style="white-space: pre" xml:space="preserve" font-family="Lora" font-size="22" letter-spacing="0em"><tspan x="120" y="334.052">What the live assessment does today, and where it falls short.</tspan></text>
<rect x="120.5" y="390.5" width="279" height="279" fill="white"/>
<rect x="120.5" y="390.5" width="279" height="279" stroke="#938C86"/>
<rect x="120" y="390" width="280" height="36" fill="#1C3F5E"/>
<rect x="136" y="404" width="80" height="8" fill="white"/>
<rect x="120" y="426" width="280" height="130" fill="#1C3F5E"/>
<rect x="144" y="450" width="100" height="8" fill="#BE7241"/>
<rect x="144" y="468" width="232" height="14" fill="white"/>
<rect x="144" y="488" width="200" height="14" fill="white"/>
<rect x="144" y="520" width="110" height="22" fill="#BE7241"/>
<rect x="144" y="578" width="232" height="8" fill="#EEEDEC"/>
<rect x="144" y="594" width="208" height="8" fill="#EEEDEC"/>
<rect x="144" y="610" width="162.4" height="8" fill="#EEEDEC"/>
<rect x="144" y="642" width="232" height="16" fill="#EEEDEC"/>
<text fill="#1D1C1B" style="white-space: pre" xml:space="preserve" font-family="DM Sans" font-size="12" font-weight="500" letter-spacing="0em"><tspan x="198.787" y="690.092">Intro screen (current)</tspan></text>
<rect x="480.5" y="390.5" width="279" height="279" fill="white"/>
<rect x="480.5" y="390.5" width="279" height="279" stroke="#938C86"/>
<rect x="480" y="390" width="280" height="36" fill="#1C3F5E"/>
<rect x="496" y="404" width="80" height="8" fill="white"/>
<rect x="504" y="450" width="232" height="4" fill="#EEEDEC"/>
<rect x="504" y="450" width="92.8" height="4" fill="#BE7241"/>
<rect x="504" y="468" width="90" height="10" fill="#BE7241"/>
<rect x="504" y="486" width="208" height="16" fill="#1D1C1B"/>
<rect x="504.5" y="524.5" width="11" height="11" fill="white" stroke="#938C86"/>
<rect x="524" y="527" width="200" height="6" fill="#EEEDEC"/>
<rect x="504.5" y="550.5" width="11" height="11" fill="white" stroke="#938C86"/>
<rect x="524" y="553" width="200" height="6" fill="#EEEDEC"/>
<rect x="504.5" y="576.5" width="11" height="11" fill="white" stroke="#938C86"/>
<rect x="524" y="579" width="200" height="6" fill="#EEEDEC"/>
<rect x="504.5" y="602.5" width="11" height="11" fill="white" stroke="#938C86"/>
<rect x="524" y="605" width="200" height="6" fill="#EEEDEC"/>
<rect x="504.5" y="628.5" width="11" height="11" fill="white" stroke="#938C86"/>
<rect x="524" y="631" width="200" height="6" fill="#EEEDEC"/>
<rect x="656" y="626" width="80" height="24" fill="#1C3F5E"/>
<text fill="#1D1C1B" style="white-space: pre" xml:space="preserve" font-family="DM Sans" font-size="12" font-weight="500" letter-spacing="0em"><tspan x="539.926" y="690.092">Mid-section (Section 2 of 5)</tspan></text>
<rect x="840.5" y="390.5" width="279" height="279" fill="white"/>
<rect x="840.5" y="390.5" width="279" height="279" stroke="#938C86"/>
<rect x="840" y="390" width="280" height="36" fill="#1C3F5E"/>
<rect x="856" y="404" width="80" height="8" fill="white"/>
<rect x="864" y="446" width="110" height="12" fill="#BE7241"/>
<rect x="864" y="468" width="232" height="22" fill="#1D1C1B"/>
<rect x="864" y="500" width="208" height="8" fill="#EEEDEC"/>
<rect x="864" y="514" width="184" height="8" fill="#EEEDEC"/>
<rect x="864" y="538" width="90" height="16" fill="#EEEDEC"/>
<rect x="864" y="590" width="232" height="28" fill="#1C3F5E"/>
<text fill="#1D1C1B" style="white-space: pre" xml:space="preserve" font-family="DM Sans" font-size="12" font-weight="500" letter-spacing="0em"><tspan x="928.578" y="690.092">Results (tier label)</tspan></text>
<rect width="280" height="100" transform="translate(120 730)" fill="#EEEDEC"/>
<rect x="120" y="730" width="3" height="100" fill="#BE7241"/>
<text fill="#BE7241" style="white-space: pre" xml:space="preserve" font-family="DM Sans" font-size="10" font-weight="500" letter-spacing="0.08em"><tspan x="136" y="751.91">GAP &#xb7; NO SYMPTOM TRIAGE</tspan></text>
<text fill="#1D1C1B" style="white-space: pre" xml:space="preserve" font-family="Lora" font-size="12" font-style="italic" letter-spacing="0em"><tspan x="136" y="775.392">The user must agree to all five sections </tspan><tspan x="136" y="793.392">without knowing which apply. Drop-off </tspan><tspan x="136" y="811.392">happens in the unrelated sections.</tspan></text>
<rect width="280" height="100" transform="translate(480 730)" fill="#EEEDEC"/>
<rect x="480" y="730" width="3" height="100" fill="#BE7241"/>
<text fill="#BE7241" style="white-space: pre" xml:space="preserve" font-family="DM Sans" font-size="10" font-weight="500" letter-spacing="0.08em"><tspan x="496" y="751.91">GAP &#xb7; NO COMPLETED-SECTIONS VIEW</tspan></text>
<text fill="#1D1C1B" style="white-space: pre" xml:space="preserve" font-family="Lora" font-size="12" font-style="italic" letter-spacing="0em"><tspan x="496" y="775.392">Progress shows 'Section 2 of 5' as a </tspan><tspan x="496" y="793.392">percentage. It does not show which sections </tspan><tspan x="496" y="811.392">are done, which were skipped, or what is left.</tspan></text>
<rect width="280" height="100" transform="translate(840 730)" fill="#EEEDEC"/>
<rect x="840" y="730" width="3" height="100" fill="#BE7241"/>
<text fill="#BE7241" style="white-space: pre" xml:space="preserve" font-family="DM Sans" font-size="10" font-weight="500" letter-spacing="0.08em"><tspan x="856" y="751.91">GAP &#xb7; GENERIC RESULT</tspan></text>
<text fill="#1D1C1B" style="white-space: pre" xml:space="preserve" font-family="Lora" font-size="12" font-style="italic" letter-spacing="0em"><tspan x="856" y="775.392">Output is a tier label and a generic /learn </tspan><tspan x="856" y="793.392">link. No per-section breakdown. No specific </tspan><tspan x="856" y="811.392">article, routine, or podiatrist-prep language.</tspan></text>
<rect width="600" height="280" transform="translate(1200 390)" fill="#EEEDEC"/>
<rect x="1200" y="390" width="3" height="280" fill="#BE7241"/>
<text fill="#BE7241" style="white-space: pre" xml:space="preserve" font-family="DM Sans" font-size="10" font-weight="500" letter-spacing="0.08em"><tspan x="1216" y="413.91">OTHER GAPS</tspan></text>
<text fill="#1D1C1B" style="white-space: pre" xml:space="preserve" font-family="DM Sans" font-size="13" font-weight="500" letter-spacing="0em"><tspan x="1216" y="442.933">No acknowledgment moment</tspan></text>
<text fill="#1D1C1B" style="white-space: pre" xml:space="preserve" font-family="Lora" font-size="11" font-style="italic" letter-spacing="0em"><tspan x="1216" y="460.026">Score jumps in with no transition. Micro-moments matter.</tspan></text>
<text fill="#1D1C1B" style="white-space: pre" xml:space="preserve" font-family="DM Sans" font-size="13" font-weight="500" letter-spacing="0em"><tspan x="1216" y="490.933">Not in main nav</tspan></text>
<text fill="#1D1C1B" style="white-space: pre" xml:space="preserve" font-family="Lora" font-size="11" font-style="italic" letter-spacing="0em"><tspan x="1216" y="508.026">Highest-value action is only reachable from the homepage CTA.</tspan></text>
<text fill="#1D1C1B" style="white-space: pre" xml:space="preserve" font-family="DM Sans" font-size="13" font-weight="500" letter-spacing="0em"><tspan x="1216" y="538.933">No re-engagement loop</tspan></text>
<text fill="#1D1C1B" style="white-space: pre" xml:space="preserve" font-family="Lora" font-size="11" font-style="italic" letter-spacing="0em"><tspan x="1216" y="556.026">Foot health changes over months. The current product is a one-shot.</tspan></text>
<text fill="#1D1C1B" style="white-space: pre" xml:space="preserve" font-family="DM Sans" font-size="13" font-weight="500" letter-spacing="0em"><tspan x="1216" y="586.933">Pain section is binary</tspan></text>
<text fill="#1D1C1B" style="white-space: pre" xml:space="preserve" font-family="Lora" font-size="11" font-style="italic" letter-spacing="0em"><tspan x="1216" y="604.026">Pain is interoceptive. Forcing yes / no produces false positives.</tspan></text>
<text fill="#BE7241" style="white-space: pre" xml:space="preserve" font-family="DM Sans" font-size="11" font-weight="500" letter-spacing="0.12em"><tspan x="120" y="940.751">SECTION 02 &#xb7; COMPARATIVE ANALYSIS</tspan></text>
<text fill="#1D1C1B" style="white-space: pre" xml:space="preserve" font-family="Lora" font-size="22" letter-spacing="0em"><tspan x="120" y="974.052">Five comparable intake tools. The move worth borrowing, and the move worth avoiding.</tspan></text>
<rect x="120.5" y="1030.5" width="319" height="229" fill="white"/>
<rect x="120.5" y="1030.5" width="319" height="229" stroke="#938C86"/>
<rect x="120" y="1030" width="320" height="56" fill="#EEEDEC"/>
<text fill="#1D1C1B" style="white-space: pre" xml:space="preserve" font-family="DM Sans" font-size="14" font-weight="500" letter-spacing="0em"><tspan x="136" y="1055.77">BetterHelp &#xb7; intake</tspan></text>
<text fill="#938C86" style="white-space: pre" xml:space="preserve" font-family="DM Sans" font-size="11" letter-spacing="0em"><tspan x="136" y="1072.75">Demographic + concern. Single-Q per </tspan><tspan x="136" y="1086.75">screen.</tspan></text>
<rect x="356" y="1046" width="72" height="22" rx="11" fill="#B03A2E"/>
<text fill="white" style="white-space: pre" xml:space="preserve" font-family="DM Sans" font-size="10" font-weight="500" letter-spacing="0.08em"><tspan x="375.786" y="1059.91">AVOID</tspan></text>
<rect x="136" y="1102" width="288" height="90" fill="#EEEDEC"/>
<rect x="148" y="1116" width="264" height="8" fill="#1C3F5E"/>
<rect x="148" y="1130" width="264" height="14" fill="white"/>
<rect x="148" y="1150" width="128" height="14" fill="white"/>
<rect x="284" y="1150" width="128" height="14" fill="white"/>
<rect x="148" y="1170" width="264" height="14" fill="white"/>
<text fill="#1D1C1B" style="white-space: pre" xml:space="preserve" font-family="Lora" font-size="11" font-style="italic" letter-spacing="0em"><tspan x="136" y="1218.03">Borrow: full-screen single-Q pattern. Avoid: 20+ screens </tspan><tspan x="136" y="1234.03">before any value. Heavy length kills the same audience </tspan><tspan x="136" y="1250.03">MSR is courting.</tspan></text>
<rect x="464.5" y="1030.5" width="319" height="229" fill="white"/>
<rect x="464.5" y="1030.5" width="319" height="229" stroke="#938C86"/>
<rect x="464" y="1030" width="320" height="56" fill="#EEEDEC"/>
<text fill="#1D1C1B" style="white-space: pre" xml:space="preserve" font-family="DM Sans" font-size="14" font-weight="500" letter-spacing="0em"><tspan x="480" y="1055.77">WHOOP &#xb7; onboarding</tspan></text>
<text fill="#938C86" style="white-space: pre" xml:space="preserve" font-family="DM Sans" font-size="11" letter-spacing="0em"><tspan x="480" y="1072.75">Body data + goal selection.</tspan></text>
<rect x="700" y="1046" width="72" height="22" rx="11" fill="#3A6B4E"/>
<text fill="white" style="white-space: pre" xml:space="preserve" font-family="DM Sans" font-size="10" font-weight="500" letter-spacing="0.08em"><tspan x="712.467" y="1059.91">BORROW</tspan></text>
<rect x="480" y="1102" width="288" height="90" fill="#EEEDEC"/>
<rect x="492" y="1116" width="264" height="10" fill="#1C3F5E"/>
<rect x="492" y="1132" width="184.8" height="8" fill="white"/>
<rect x="492" y="1146" width="70" height="16" fill="#BE7241"/>
<rect x="492" y="1168" width="264" height="12" fill="white"/>
<text fill="#1D1C1B" style="white-space: pre" xml:space="preserve" font-family="Lora" font-size="11" font-style="italic" letter-spacing="0em"><tspan x="480" y="1218.03">Borrow: a "why we ask" microcopy per question. Builds </tspan><tspan x="480" y="1234.03">trust during data collection. Useful for the pain section </tspan><tspan x="480" y="1250.03">where the user might wonder why.</tspan></text>
<rect x="808.5" y="1030.5" width="319" height="229" fill="white"/>
<rect x="808.5" y="1030.5" width="319" height="229" stroke="#938C86"/>
<rect x="808" y="1030" width="320" height="56" fill="#EEEDEC"/>
<text fill="#1D1C1B" style="white-space: pre" xml:space="preserve" font-family="DM Sans" font-size="14" font-weight="500" letter-spacing="0em"><tspan x="824" y="1055.77">Function Health &#xb7; intake</tspan></text>
<text fill="#938C86" style="white-space: pre" xml:space="preserve" font-family="DM Sans" font-size="11" letter-spacing="0em"><tspan x="824" y="1072.75">Symptom multi-select, then deep-dive.</tspan></text>
<rect x="1044" y="1046" width="72" height="22" rx="11" fill="#3A6B4E"/>
<text fill="white" style="white-space: pre" xml:space="preserve" font-family="DM Sans" font-size="10" font-weight="500" letter-spacing="0.08em"><tspan x="1056.47" y="1059.91">BORROW</tspan></text>
<rect x="824" y="1102" width="288" height="90" fill="#EEEDEC"/>
<rect x="836.5" y="1118.5" width="21" height="17" rx="8.5" fill="white" stroke="#1C3F5E"/>
<rect x="864.5" y="1118.5" width="31" height="17" rx="8.5" fill="white" stroke="#1C3F5E"/>
<rect x="902.5" y="1118.5" width="25" height="17" rx="8.5" fill="white" stroke="#1C3F5E"/>
<rect x="934.5" y="1118.5" width="37" height="17" rx="8.5" fill="white" stroke="#1C3F5E"/>
<rect x="978.5" y="1118.5" width="27" height="17" rx="8.5" fill="white" stroke="#1C3F5E"/>
<rect x="836.5" y="1144.5" width="29" height="17" rx="8.5" fill="white" stroke="#1C3F5E"/>
<rect x="872.5" y="1144.5" width="25" height="17" rx="8.5" fill="white" stroke="#1C3F5E"/>
<rect x="836" y="1174" width="60" height="14" fill="#BE7241"/>
<text fill="#1D1C1B" style="white-space: pre" xml:space="preserve" font-family="Lora" font-size="11" font-style="italic" letter-spacing="0em"><tspan x="824" y="1218.03">Borrow: triage-first. User picks concerns, then only </tspan><tspan x="824" y="1234.03">relevant sections render. Closest match to what MSR </tspan><tspan x="824" y="1250.03">needs.</tspan></text>
<rect x="1152.5" y="1030.5" width="319" height="229" fill="white"/>
<rect x="1152.5" y="1030.5" width="319" height="229" stroke="#938C86"/>
<rect x="1152" y="1030" width="320" height="56" fill="#EEEDEC"/>
<text fill="#1D1C1B" style="white-space: pre" xml:space="preserve" font-family="DM Sans" font-size="14" font-weight="500" letter-spacing="0em"><tspan x="1168" y="1055.77">Hims &#xb7; symptom checker</tspan></text>
<text fill="#938C86" style="white-space: pre" xml:space="preserve" font-family="DM Sans" font-size="11" letter-spacing="0em"><tspan x="1168" y="1072.75">Branching by selected concern.</tspan></text>
<rect x="1388" y="1046" width="72" height="22" rx="11" fill="#3A6B4E"/>
<text fill="white" style="white-space: pre" xml:space="preserve" font-family="DM Sans" font-size="10" font-weight="500" letter-spacing="0.08em"><tspan x="1400.47" y="1059.91">BORROW</tspan></text>
<rect x="1168" y="1102" width="288" height="90" fill="#EEEDEC"/>
<rect x="1180" y="1116" width="30" height="30" fill="#1C3F5E"/>
<rect x="1224.5" y="1108.5" width="29" height="21" fill="white" stroke="#1C3F5E"/>
<rect x="1224.5" y="1138.5" width="29" height="21" fill="white" stroke="#1C3F5E"/>
<rect x="1224.5" y="1168.5" width="29" height="21" fill="white" stroke="#1C3F5E"/>
<line x1="1210" y1="1130.5" x2="1224" y2="1130.5" stroke="#938C86"/>
<line x1="1210" y1="1148.5" x2="1224" y2="1148.5" stroke="#938C86"/>
<line x1="1210" y1="1178.5" x2="1224" y2="1178.5" stroke="#938C86"/>
<rect x="1268" y="1128" width="60" height="22" fill="#BE7241"/>
<rect x="1334" y="1128" width="30" height="22" fill="#EEEDEC"/>
<text fill="#1D1C1B" style="white-space: pre" xml:space="preserve" font-family="Lora" font-size="11" font-style="italic" letter-spacing="0em"><tspan x="1168" y="1218.03">Borrow: each path is short. Five questions max per </tspan><tspan x="1168" y="1234.03">concern. Avoid: hard product sell at the end. MSR keeps </tspan><tspan x="1168" y="1250.03">editorial separation.</tspan></text>
<rect x="1496.5" y="1030.5" width="319" height="229" fill="white"/>
<rect x="1496.5" y="1030.5" width="319" height="229" stroke="#938C86"/>
<rect x="1496" y="1030" width="320" height="56" fill="#EEEDEC"/>
<text fill="#1D1C1B" style="white-space: pre" xml:space="preserve" font-family="DM Sans" font-size="14" font-weight="500" letter-spacing="0em"><tspan x="1512" y="1055.77">Eight Sleep &#xb7; onboarding</tspan></text>
<text fill="#938C86" style="white-space: pre" xml:space="preserve" font-family="DM Sans" font-size="11" letter-spacing="0em"><tspan x="1512" y="1072.75">Goal selection + scheduled check-in.</tspan></text>
<rect x="1732" y="1046" width="72" height="22" rx="11" fill="#3A6B4E"/>
<text fill="white" style="white-space: pre" xml:space="preserve" font-family="DM Sans" font-size="10" font-weight="500" letter-spacing="0.08em"><tspan x="1744.47" y="1059.91">BORROW</tspan></text>
<rect x="1512" y="1102" width="288" height="90" fill="#EEEDEC"/>
<rect x="1524" y="1116" width="264" height="8" fill="#1C3F5E"/>
<rect x="1524.5" y="1132.5" width="49" height="27" fill="white" stroke="#1C3F5E"/>
<rect x="1580" y="1132" width="50" height="28" fill="#BE7241"/>
<rect x="1636.5" y="1132.5" width="49" height="27" fill="white" stroke="#1C3F5E"/>
<rect x="1524" y="1170" width="16" height="10" fill="#BE7241"/>
<rect x="1544" y="1172" width="244" height="6" fill="#1C3F5E"/>
<text fill="#1D1C1B" style="white-space: pre" xml:space="preserve" font-family="Lora" font-size="11" font-style="italic" letter-spacing="0em"><tspan x="1512" y="1218.03">Borrow: "we will check in at 14 days" framing for re-</tspan><tspan x="1512" y="1234.03">engagement. Direct analog for the 30 / 90 day pattern </tspan><tspan x="1512" y="1250.03">MSR needs.</tspan></text>
<rect width="1680" height="312" transform="translate(120 1330)" fill="#EEEDEC"/>
<rect x="120" y="1330" width="3" height="312" fill="#BE7241"/>
<text fill="#BE7241" style="white-space: pre" xml:space="preserve" font-family="DM Sans" font-size="10" font-weight="500" letter-spacing="0.08em"><tspan x="144" y="1353.91">NET MOVES WE ARE BORROWING</tspan></text>
<text fill="#1D1C1B" style="white-space: pre" xml:space="preserve" font-family="DM Sans" font-size="13" font-weight="500" letter-spacing="0em"><tspan x="144" y="1380.93">Triage first</tspan></text>
<text fill="#1D1C1B" style="white-space: pre" xml:space="preserve" font-family="Lora" font-size="12" font-style="italic" letter-spacing="0em"><tspan x="144" y="1399.39">Function Health pattern. Reduces median time and irrelevant section drop-off.</tspan></text>
<text fill="#1D1C1B" style="white-space: pre" xml:space="preserve" font-family="DM Sans" font-size="13" font-weight="500" letter-spacing="0em"><tspan x="144" y="1432.93">Single-Q full-screen pattern (optional)</tspan></text>
<text fill="#1D1C1B" style="white-space: pre" xml:space="preserve" font-family="Lora" font-size="12" font-style="italic" letter-spacing="0em"><tspan x="144" y="1451.39">BetterHelp pattern, used sparingly. Default stays multi-Q per section, single-Q for the pain section.</tspan></text>
<text fill="#1D1C1B" style="white-space: pre" xml:space="preserve" font-family="DM Sans" font-size="13" font-weight="500" letter-spacing="0em"><tspan x="144" y="1484.93">"Why we ask" microcopy</tspan></text>
<text fill="#1D1C1B" style="white-space: pre" xml:space="preserve" font-family="Lora" font-size="12" font-style="italic" letter-spacing="0em"><tspan x="144" y="1503.39">WHOOP pattern. Used on the pain section to explain the "Not sure" option.</tspan></text>
<text fill="#1D1C1B" style="white-space: pre" xml:space="preserve" font-family="DM Sans" font-size="13" font-weight="500" letter-spacing="0em"><tspan x="144" y="1536.93">Short branching paths</tspan></text>
<text fill="#1D1C1B" style="white-space: pre" xml:space="preserve" font-family="Lora" font-size="12" font-style="italic" letter-spacing="0em"><tspan x="144" y="1555.39">Hims pattern. Each section caps at five to seven items max.</tspan></text>
<text fill="#1D1C1B" style="white-space: pre" xml:space="preserve" font-family="DM Sans" font-size="13" font-weight="500" letter-spacing="0em"><tspan x="144" y="1588.93">Scheduled re-engagement</tspan></text>
<text fill="#1D1C1B" style="white-space: pre" xml:space="preserve" font-family="Lora" font-size="12" font-style="italic" letter-spacing="0em"><tspan x="144" y="1607.39">Eight Sleep pattern. 30 and 90 day automated re-check emails.</tspan></text>
</svg>
